<svg version="1.1" id="Layer_1" xmlns="http://www.w3.org/2000/svg" xmlns:xlink="http://www.w3.org/1999/xlink" x="0px" y="0px" width="16px" height="16px" viewBox="0 0 16 16" enable-background="new 0 0 16 16" xml:space="preserve">
  <g id="main">
    <g id="icon">
      <path d="M2.866,0.5471L2.676,0.6758L2.547,0.8664L2.5,1.1L2.5,4L9.15,4L9.522,4.038L9.87,4.146L10.18,4.316L10.46,4.542L10.68,4.816L10.85,5.13L10.96,5.478L11,5.85L11,7.771L11.47,8.238L13.32,6.388L13.52,6.222L13.75,6.101L13.99,6.026L14.25,6.001L14.5,6.025L14.5,4.917L14.48,4.602L14.41,4.34L14.28,4.106L14.08,3.875L11.04,0.8414L10.68,0.5988L10.43,0.5264L10.12,0.5L3.1,0.5zz" fill-rule="evenodd" fill="#FFFFFF"/>
      <path d="M2.672,0.08652L2.323,0.3227L2.087,0.6723L2,1.1L2,4L3,4L3,1.1L3.029,1.029L3.1,1L10,1L10,4L10.03,4.223L10.46,4.541L10.77,4.965L10.8,4.972L10.96,5L14,5L14,6.026L14.25,6.001L14.51,6.026L14.76,6.101L14.98,6.222L15,6.236L15,4.917L14.97,4.506L14.87,4.151L14.69,3.83L14.43,3.521L11.39,0.4879L11.13,0.273L10.83,0.1209L10.49,0.03008L10.12,0L3.1,0zM13.49,4L11.05,4L11,3.965L11,1.507zM14.7,11.47L15,11.77L15,11.17zM11.17,15L11.77,15L11.47,14.7zz" fill="#6D6E71"/>
      <path d="M4.305,2.039L4.146,2.146L4.039,2.305L4,2.5L4.039,2.695L4.146,2.854L4.305,2.961L4.5,3L8.5,3L8.695,2.961L8.854,2.854L8.961,2.695L9,2.5L8.961,2.305L8.854,2.146L8.695,2.039L8.5,2L4.5,2zM11,7L12.5,7L12.69,6.961L12.85,6.858L12.86,6.847L12.96,6.695L13,6.5L12.96,6.305L12.85,6.146L12.69,6.039L12.5,6L11,6zM11.47,8.238L11.71,8L11.23,8zz" fill="#B4B4B5"/>
      <path d="M0.5191,5.067L0.2488,5.249L0.0668,5.519L0,5.85L0,14.15L0.0668,14.48L0.2488,14.75L0.5191,14.93L0.8498,15L6.235,15L6.218,14.98L6.097,14.75L6.001,14.25L6.05,14L6,14L4,14L3,14L3,13.34L3.03,13.21L3.111,13.1L3.231,13.03L3.378,13L4,13L4,7L2.447,7L2.252,7.036L2.094,7.135L1.987,7.281L1.947,7.46L1.903,7.559L1.795,7.6L1,7.6L1,7L1,6.472L1,6.387L1.031,6.236L1.117,6.113L1.243,6.03L1.398,6L4.718,6L6.046,6L8.602,6L8.632,6.006L8.683,6.001L8.943,6.026L9.189,6.101L9.416,6.222L9.617,6.388L10,6.771L10,5.85L9.933,5.519L9.751,5.249L9.481,5.067L9.15,5L0.8498,5zM6,8.684L6.025,8.424L6.1,8.178L6.221,7.951L6.387,7.75L7.137,7L6,7zM6,8.684L6,13L6.622,13L6.692,13.01L8.237,11.47L6.387,9.618L6.221,9.416L6.1,9.19L6.025,8.944L6,8.684zz" fill="#3E79B4"/>
      <path d="M1.243,6.03L1.117,6.113L1.031,6.236L1,6.387L1,6.472L1,7L1,7.6L1.795,7.6L1.903,7.559L1.947,7.46L1.987,7.281L2.094,7.135L2.252,7.036L2.447,7L4,7L4,13L3.378,13L3.231,13.03L3.111,13.1L3.03,13.21L3,13.34L3,14L4,14L6,14L6.05,14L6.097,13.75L6.218,13.53L6.387,13.32L6.692,13.01L6.622,13L6,13L6,8.684L6,7L7.137,7L7.749,6.388L7.951,6.222L8.177,6.101L8.423,6.026L8.632,6.006L8.602,6L6.046,6L4.718,6L1.398,6zz" fill="#FFFFFF"/>
    </g>
    <g id="overlay">
      <path d="M15.906,14.544l-1.362,1.362c-0.125,0.125,-0.329,0.125,-0.454,0l-2.622,-2.622l-2.557,2.557c-0.125,0.125,-0.329,0.125,-0.454,0l-1.362,-1.362c-0.125,-0.125,-0.125,-0.329,0,-0.454l2.557,-2.557L7.094,8.911c-0.125,-0.125,-0.125,-0.329,0,-0.454l1.362,-1.362c0.125,-0.125,0.329,-0.125,0.454,0l2.557,2.557l2.557,-2.557c0.125,-0.125,0.329,-0.125,0.454,0l1.362,1.362c0.125,0.125,0.125,0.329,0,0.454l-2.557,2.557l2.622,2.622C16.031,14.215,16.031,14.418,15.906,14.544z" fill-rule="evenodd" fill="#CD4C32"/>
    </g>
  </g>
</svg>
