<svg version="1.1" id="Layer_1" xmlns="http://www.w3.org/2000/svg" xmlns:xlink="http://www.w3.org/1999/xlink" x="0px" y="0px" width="16px" height="16px" viewBox="0 0 16 16" enable-background="new 0 0 16 16" xml:space="preserve">
  <g id="icon">
    <path d="M15,15.5H1c-0.276,0,-0.5,-0.224,-0.5,-1.5V3.5h15v10.5C15.5,15.276,15.276,15.5,15,15.5z" fill="#FFFFFF" stroke="#6D6E71" stroke-width="1" stroke-miterlimit="10"/>
    <path d="M15,1H1C0.448,1,0,1.448,0,2v2h16V2C16,1.448,15.552,1,15,1zM11,3H1.5V2h9.5V3zM14.5,3h-1.5V2h1.5V3z" fill="#217346"/>
    <path d="M11,3H1.5V2h9.5V3zM14.5,2h-1.5v1h1.5V2z" fill="#FFFFFF"/>
    <path d="M13.467,8H2.533C2.239,8,2,7.761,2,7.467V5.533c0,-0.295,0.239,-0.533,0.533,-0.533h10.933c0.295,0,0.533,0.239,0.533,0.533v1.933C14,7.761,13.761,8,13.467,8z" fill="#D1D3D4"/>
    <path d="M6.467,14H2.533c-0.295,0,-0.533,-0.239,-0.533,-0.533V9.533c0,-0.295,0.239,-0.533,0.533,-0.533h3.933c0.295,0,0.533,0.239,0.533,0.533v3.933C7,13.761,6.761,14,6.467,14z" fill="#C7D9BC"/>
    <path d="M8.5,9.5h5M8.5,11.5h5M8.5,13.5h5" fill="none" stroke="#B4B4B5" stroke-width="1" stroke-linecap="round" stroke-miterlimit="10" stroke-linejoin="round"/>
  </g>
</svg>
