<svg version="1.1" id="Layer_1" xmlns="http://www.w3.org/2000/svg" xmlns:xlink="http://www.w3.org/1999/xlink" x="0px" y="0px" width="32px" height="32px" viewBox="0 0 32 32" enable-background="new 0 0 32 32" xml:space="preserve">
  <g id="main">
    <g id="icon">
      <g>
        <path d="M6.991,0.5506L6.712,0.7098L6.551,0.9891L6.5,1.4L6.5,8L14.2,8L14.56,8.037L14.9,8.141L15.21,8.307L15.47,8.527L15.69,8.794L15.86,9.099L15.96,9.437L16,9.8L16,24.2L15.96,24.56L15.86,24.9L15.69,25.21L15.47,25.47L15.21,25.69L14.9,25.86L14.56,25.96L14.2,26L6.5,26L6.5,28.6L6.551,29.01L6.712,29.29L6.991,29.45L7.4,29.5L16.72,29.5L17.83,27.38L17.8,27.35L17.91,27.24L18.47,26.17L18.72,26.43L27.31,17.84L27.3,17.83L28.91,16.24L29.25,15.96L29.5,15.83L29.5,8.8L29.47,8.489L29.39,8.226L29.27,8L29.1,7.8L22.2,0.8998L21.94,0.6896L21.71,0.5686L21.3,0.5L7.4,0.5zz" fill-rule="evenodd" fill="#FFFFFF"/>
        <path d="M7.077,0.02266L6.795,0.09004L6.554,0.2016L6.356,0.3564L6.202,0.5545L6.09,0.7949L6.023,1.077L6,1.4L6,8L7,8L7,1.4L7.012,1.185L7.064,1.064L7.185,1.012L7.4,1L21,1L21,7.7L21.03,7.962L21.1,8.205L21.38,8.619L21.79,8.898L22.04,8.974L22.3,9L29,9L29,16.17L29.25,15.96L29.58,15.79L29.88,15.71L30,15.7L30,8.8L29.97,8.409L29.87,8.056L29.7,7.738L29.45,7.446L22.55,0.5463L22.27,0.3059L21.97,0.1354L21.64,0.03359L21.3,0L7.4,0zM28.59,8L22.3,8L22.09,7.912L22,7.7L22,1.407zM6,28.6L6.023,28.92L6.09,29.21L6.202,29.45L6.356,29.64L6.554,29.8L6.795,29.91L7.077,29.98L7.4,30L16.46,30L16.98,29L7.4,29L7.185,28.99L7.064,28.94L7.012,28.82L7,28.6L7,26L6,26zz" fill="#6D6E71"/>
      </g>
      <path d="M9.305,5.039L9.146,5.146L9.039,5.305L9,5.5L9.039,5.695L9.146,5.854L9.305,5.961L9.5,6L18.5,6L18.69,5.961L18.85,5.854L18.96,5.695L19,5.5L18.96,5.305L18.85,5.146L18.69,5.039L18.5,5L9.5,5zM9.305,7.039L9.146,7.146L9.039,7.305L9,7.5L9.039,7.695L9.146,7.854L9.305,7.961L9.5,8L14.2,8L18.5,8L18.69,7.961L18.85,7.854L18.96,7.695L19,7.5L18.96,7.305L18.85,7.146L18.69,7.039L18.5,7L9.5,7zM15.95,9.383L16,9.8L16,10L18.5,10L18.69,9.961L18.85,9.854L18.96,9.695L19,9.5L18.96,9.305L18.85,9.146L18.69,9.039L18.5,9L15.81,9zM16,12L26.5,12L26.69,11.96L26.85,11.85L26.96,11.69L27,11.5L26.96,11.31L26.85,11.15L26.69,11.04L26.5,11L16,11zM16,14L26.5,14L26.69,13.96L26.85,13.85L26.96,13.69L27,13.5L26.96,13.31L26.85,13.15L26.69,13.04L26.5,13L16,13zM16,16L26.5,16L26.69,15.96L26.85,15.85L26.96,15.69L27,15.5L26.96,15.31L26.85,15.15L26.69,15.04L26.5,15L16,15zM16,18L26.5,18L26.69,17.96L26.85,17.85L26.96,17.69L27,17.5L26.96,17.31L26.85,17.15L26.69,17.04L26.5,17L16,17zM16,20L25.15,20L26.15,19L16,19zM16,22L23.15,22L24.15,21L16,21zM16,24L21.15,24L22.15,23L16,23zM15.53,25.41L15.16,25.72L14.71,25.93L14.2,26L19.15,26L20.15,25L15.81,25zz" fill="#B4B4B5"/>
      <path d="M1.051,9.027L0.8041,9.104L0.3857,9.386L0.1035,9.804L0.02676,10.05L0,10.32L0,23.68L0.02676,23.95L0.1035,24.2L0.3857,24.61L0.8041,24.9L1.051,24.97L1.317,25L13.68,25L13.95,24.97L14.2,24.9L14.61,24.61L14.9,24.2L14.97,23.95L15,23.68L15,10.32L14.97,10.05L14.9,9.804L14.61,9.386L14.2,9.104L13.95,9.027L13.68,9L1.317,9zM7,11L9,11L12.4,11L12.63,11.05L12.82,11.18L12.95,11.37L13,11.6L13,11.7L13,12L13,13L12.23,13L12.07,12.93L12,12.77L11.94,12.47L11.78,12.22L11.53,12.06L11.23,12L9,12L9,22L9.933,22L10.15,22.04L10.33,22.17L10.46,22.35L10.5,22.57L10.5,23L9,23L6,23L4.5,23L4.5,22.57L4.545,22.35L4.666,22.17L4.846,22.04L5.067,22L6,22L6,12L3.767,12L3.468,12.06L3.225,12.22L3.06,12.47L3,12.77L2.932,12.93L2.767,13L2,13L2,12L2,11.6L2.047,11.37L2.176,11.18L2.366,11.05L2.6,11zz" fill="#3E79B4"/>
      <path d="M2.366,11.05L2.176,11.18L2.047,11.37L2,11.6L2,12L2,13L2.767,13L2.932,12.93L3,12.77L3.06,12.47L3.225,12.22L3.468,12.06L3.767,12L6,12L6,22L5.067,22L4.846,22.04L4.666,22.17L4.545,22.35L4.5,22.57L4.5,23L6,23L9,23L10.5,23L10.5,22.57L10.46,22.35L10.33,22.17L10.15,22.04L9.933,22L9,22L9,12L11.23,12L11.53,12.06L11.78,12.22L11.94,12.47L12,12.77L12.07,12.93L12.23,13L13,13L13,12L13,11.7L13,11.6L12.95,11.37L12.82,11.18L12.63,11.05L12.4,11L9,11L7,11L2.6,11zz" fill="#FFFFFF"/>
    </g>
    <g id="overlay">
      <path d="M19.2158,27.348l9.0199,-9.0199l2.1233,2.1233l-9.0199,9.0199L19.2158,27.348zM29.6123,16.9515c0.3525,-0.3525,0.7113,-0.3525,1.0638,0l1.0596,1.0596c0.3525,0.3525,0.3525,0.7113,0,1.0638l-0.8743,0.8743l-2.1388,-2.1202L29.6123,16.9515zM16.7052,31.677l2.0176,-3.8361l2.1233,2.1233l-3.8361,2.0176c-0.061,0.0321,-0.1358,0.0207,-0.1846,-0.028l-0.0923,-0.0923C16.6845,31.8128,16.6732,31.738,16.7052,31.677z" fill-rule="evenodd" fill="#3E79B4"/>
    </g>
  </g>
</svg>