<svg version="1.1" id="Layer_1" xmlns="http://www.w3.org/2000/svg" xmlns:xlink="http://www.w3.org/1999/xlink" x="0px" y="0px" width="16px" height="16px" viewBox="0 0 16 16" enable-background="new 0 0 16 16" xml:space="preserve">
  <g id="main">
    <g id="icon">
      <path d="M2.866,0.5471L2.676,0.6758L2.547,0.8664L2.5,1.1L2.5,4L9.15,4L9.522,4.038L9.87,4.146L10.18,4.316L10.46,4.542L10.68,4.816L10.85,5.13L10.96,5.478L11,5.85L11,7L12.32,7L12.93,7.066L13.41,7.242L13.79,7.492L14.1,7.781L14.5,8.179L14.5,4.917L14.48,4.602L14.41,4.34L14.28,4.106L14.08,3.875L11.04,0.8414L10.68,0.5988L10.43,0.5264L10.12,0.5L3.1,0.5zz" fill-rule="evenodd" fill="#FFFFFF"/>
      <path d="M2.672,0.08652L2.323,0.3227L2.087,0.6723L2,1.1L2,4L3,4L3,1.1L3.029,1.029L3.1,1L10,1L10,4L10.03,4.223L10.46,4.541L10.77,4.965L10.8,4.972L10.96,5L14,5L14,7.688L14.1,7.781L15,8.679L15,4.917L14.97,4.506L14.87,4.151L14.69,3.83L14.43,3.521L11.39,0.4879L11.13,0.273L10.83,0.1209L10.49,0.03008L10.12,0L3.1,0zM13.49,4L11.05,4L11,3.965L11,1.507zz" fill="#6D6E71"/>
      <path d="M4.305,2.039L4.146,2.146L4.039,2.305L4,2.5L4.039,2.695L4.146,2.854L4.305,2.961L4.5,3L8.5,3L8.695,2.961L8.854,2.854L8.961,2.695L9,2.5L8.961,2.305L8.854,2.146L8.695,2.039L8.5,2L4.5,2zM11,7L12.32,7L12.5,7L12.69,6.961L12.85,6.854L12.96,6.695L13,6.5L12.96,6.305L12.85,6.146L12.69,6.039L12.5,6L11,6zz" fill="#B4B4B5"/>
      <path d="M0.5191,5.067L0.2488,5.249L0.0668,5.519L0,5.85L0,14.15L0.0668,14.48L0.2488,14.75L0.5191,14.93L0.8498,15L8,15L8,8.9L8.034,8.487L8.135,8.116L8.297,7.792L8.451,7.6L8.357,7.6L8.156,7.559L8.016,7.46L7.977,7.281L7.872,7.135L7.716,7.036L7.525,7L6,7L6,13L6.622,13L6.769,13.03L6.889,13.1L6.97,13.21L7,13.34L7,14L6,14L4,14L3,14L3,13.34L3.03,13.21L3.111,13.1L3.231,13.03L3.378,13L4,13L4,7L2.447,7L2.252,7.036L2.094,7.135L1.987,7.281L1.947,7.46L1.903,7.559L1.795,7.6L1,7.6L1,7L1,6.472L1,6.387L1.031,6.236L1.117,6.113L1.243,6.03L1.398,6L4.718,6L6.046,6L8.602,6L8.757,6.03L8.883,6.113L8.969,6.236L9,6.387L9,6.452L9,6.452L9,6.955L9,7.193L9.116,7.135L9.487,7.034L9.9,7L10,7L10,5.85L9.933,5.519L9.751,5.249L9.481,5.067L9.15,5L0.8498,5zz" fill="#3E79B4"/>
      <path d="M1.243,6.03L1.117,6.113L1.031,6.236L1,6.387L1,6.472L1,7L1,7.6L1.795,7.6L1.903,7.559L1.947,7.46L1.987,7.281L2.094,7.135L2.252,7.036L2.447,7L4,7L4,13L3.378,13L3.231,13.03L3.111,13.1L3.03,13.21L3,13.34L3,14L4,14L6,14L7,14L7,13.34L6.97,13.21L6.889,13.1L6.769,13.03L6.622,13L6,13L6,7L7.525,7L7.716,7.036L7.872,7.135L7.977,7.281L8.016,7.46L8.156,7.559L8.357,7.6L8.451,7.6L8.517,7.517L8.792,7.297L9,7.193L9,6.955L9,6.452L9,6.387L8.969,6.236L8.883,6.113L8.757,6.03L8.602,6L6.046,6L4.718,6L1.398,6zz" fill="#FFFFFF"/>
    </g>
    <g id="overlay">
      <path d="M15.1,15.5H9.9c-0.331,0,-0.4,-0.069,-0.4,-0.4V8.9c0,-0.331,0.069,-0.4,0.4,-0.4c0,0,1.95,0,2.417,0s0.533,0.149,0.725,0.341c0.192,0.192,1.717,1.717,2.034,2.034c0.317,0.317,0.425,0.175,0.425,0.642c0,0.467,0,3.583,0,3.583C15.5,15.431,15.431,15.5,15.1,15.5z" fill-rule="evenodd" fill="#FFFFFF"/>
      <path d="M15.429,10.521l-2.034,-2.034c-0.328,-0.328,-0.546,-0.488,-1.078,-0.488H9.9c-0.607,0,-0.9,0.293,-0.9,0.9v6.2c0,0.607,0.293,0.9,0.9,0.9h5.2c0.607,0,0.9,-0.293,0.9,-0.9v-3.583C16,10.924,15.84,10.933,15.429,10.521zM13,9.507L14.493,11h-1.448c-0.016,-0.009,-0.034,-0.023,-0.045,-0.035V9.507zM14.9,15h-4.8c-0.055,0,-0.1,-0.045,-0.1,-0.1V9.1c0,-0.055,0.045,-0.1,0.1,-0.1h1.9v2.2c0,0.473,0.199,0.667,0.598,0.772c0.051,0.018,0.106,0.027,0.164,0.027H15v2.9C15,14.955,14.955,15,14.9,15z" fill="#6D6E71"/>
    </g>
  </g>
</svg>
