<svg version="1.1" id="Layer_1" xmlns="http://www.w3.org/2000/svg" xmlns:xlink="http://www.w3.org/1999/xlink" x="0px" y="0px" width="32px" height="32px" viewBox="0 0 32 32" enable-background="new 0 0 32 32" xml:space="preserve">
  <g id="icon" style="opacity: 0.1">
    <path d="M30,29.5H2c-0.276,0,-0.5,-0.224,-0.5,-0.5V7.5h29v21.5C30.5,29.276,30.276,29.5,30,29.5z" fill="#FFFFFF" stroke="#6D6E71" stroke-width="1" stroke-miterlimit="10"/>
    <path d="M29.6,2H2.4c-0.773,0,-1.4,0.627,-1.4,1.4v4.6h30V3.4C31,2.627,30.373,2,29.6,2zM24,5.617c0,0.212,-0.172,0.383,-0.383,0.383H3.383C3.172,6,3,5.828,3,5.617V4.383c0,-0.212,0.172,-0.383,0.383,-0.383h20.233c0.212,0,0.383,0.172,0.383,0.383V5.617zM27,6.3c-0.718,0,-1.3,-0.582,-1.3,-1.3s0.582,-1.3,1.3,-1.3s1.3,0.582,1.3,1.3S27.718,6.3,27,6.3z" fill="#217346"/>
    <path d="M23.617,6H3.383C3.172,6,3,5.828,3,5.617V4.383c0,-0.212,0.172,-0.383,0.383,-0.383h20.233c0.212,0,0.383,0.172,0.383,0.383v1.233C24,5.828,23.828,6,23.617,6zM27,3.7c-0.718,0,-1.3,0.582,-1.3,1.3s0.582,1.3,1.3,1.3s1.3,-0.582,1.3,-1.3S27.718,3.7,27,3.7z" fill="#FFFFFF"/>
    <path d="M27,15H5c-0.552,0,-1,-0.448,-1,-1v-3c0,-0.552,0.448,-1,1,-1h22c0.552,0,1,0.448,1,1v3C28,14.552,27.552,15,27,15z" fill="#D1D3D4"/>
    <path d="M12,27H5c-0.552,0,-1,-0.448,-1,-1v-9c0,-0.552,0.448,-1,1,-1h7c0.552,0,1,0.448,1,1v9C13,26.552,12.552,27,12,27z" fill="#C7D9BC"/>
    <path d="M15.1,17.5h11.9M15.1,19.5h11.9M15.1,21.5h11.9M15.1,23.5h11.9M15.1,25.5h11.9" fill="none" stroke="#B4B4B5" stroke-width="1" stroke-linecap="round" stroke-miterlimit="10" stroke-linejoin="round"/>
  </g>
</svg>