<svg version="1.1" id="Layer_1" xmlns="http://www.w3.org/2000/svg" xmlns:xlink="http://www.w3.org/1999/xlink" x="0px" y="0px" width="16px" height="16px" viewBox="0 0 16 16" enable-background="new 0 0 16 16" xml:space="preserve">
  <g id="icon">
    <path d="M15.075,3.875c-0.317,-0.317,-2.842,-2.842,-3.034,-3.034S11.583,0.5,11.117,0.5S3.1,0.5,3.1,0.5c-0.331,0,-0.6,0.269,-0.6,0.6v3.9h6.786c0.945,0,1.714,0.769,1.714,1.714v8.571c0,0.073,-0.006,0.144,-0.015,0.214H14.9c0.331,0,0.6,-0.269,0.6,-0.6c0,0,0,-9.517,0,-9.983S15.392,4.192,15.075,3.875z" fill-rule="evenodd" fill="#FFFFFF"/>
    <path d="M15.429,3.521L12.395,0.488C12.067,0.16,11.649,0,11.117,0H3.1c-0.607,0,-1.1,0.493,-1.1,1.1v3.9h1V1.1c0,-0.055,0.045,-0.1,0.1,-0.1h7.9v3c0,0.473,0.399,0.867,0.798,0.972c0.051,0.018,0.106,0.027,0.164,0.027H15v9.9c0,0.055,-0.045,0.1,-0.1,0.1h-3.9v0.286c0,0.255,-0.058,0.497,-0.158,0.714H14.9c0.607,0,1.1,-0.493,1.1,-1.1V4.917C16,4.324,15.84,3.933,15.429,3.521zM12.045,4c-0.016,-0.009,-0.034,-0.023,-0.045,-0.035V1.507L14.493,4H12.045z" fill="#6D6E71"/>
    <path d="M9.252,15.5H0.748C0.611,15.5,0.5,15.389,0.5,15.252V6.748C0.5,6.611,0.611,6.5,0.748,6.5h8.503c0.137,0,0.248,0.111,0.248,0.248v8.503C9.5,15.389,9.389,15.5,9.252,15.5z" fill="#FFFFFF" stroke="#6D6E71" stroke-width="1" stroke-miterlimit="10"/>
    <line x1="2.5" y1="8.5" x2="7.5" y2="8.5" fill="none" stroke="#3E79B4" stroke-width="1" stroke-linecap="round" stroke-miterlimit="10"/>
    <line x1="2.5" y1="10.5" x2="7.5" y2="10.5" fill="none" stroke="#3E79B4" stroke-width="1" stroke-linecap="round" stroke-miterlimit="10"/>
    <line x1="2.5" y1="12.5" x2="7.5" y2="12.5" fill="none" stroke="#3E79B4" stroke-width="1" stroke-linecap="round" stroke-miterlimit="10"/>
  </g>
</svg>
