<svg version="1.1" id="Layer_1" xmlns="http://www.w3.org/2000/svg" xmlns:xlink="http://www.w3.org/1999/xlink" x="0px" y="0px" width="16px" height="16px" viewBox="0 0 16 16" enable-background="new 0 0 16 16" xml:space="preserve">
  <g id="icon">
    <path d="M15.075,3.875c-0.317,-0.317,-2.842,-2.842,-3.034,-3.034S11.583,0.5,11.117,0.5S3.1,0.5,3.1,0.5c-0.331,0,-0.6,0.269,-0.6,0.6v3.637C3.398,4.267,4.418,4,5.5,4c3.584,0,6.5,2.916,6.5,6.5c0,2.008,-0.916,3.807,-2.352,5H14.9c0.331,0,0.6,-0.269,0.6,-0.6c0,0,0,-9.517,0,-9.983S15.392,4.192,15.075,3.875z" fill-rule="evenodd" fill="#FFFFFF"/>
    <path d="M15.429,3.521L12.395,0.488C12.067,0.16,11.649,0,11.117,0H3.1c-0.607,0,-1.1,0.493,-1.1,1.1v3.927c0.316,-0.203,0.65,-0.38,1,-0.526V1.1c0,-0.055,0.045,-0.1,0.1,-0.1h7.9v3c0,0.473,0.399,0.867,0.798,0.972c0.051,0.018,0.106,0.027,0.164,0.027H15v9.9c0,0.055,-0.045,0.1,-0.1,0.1h-4.716c-0.366,0.381,-0.777,0.717,-1.226,1H14.9c0.607,0,1.1,-0.493,1.1,-1.1V4.917C16,4.324,15.84,3.933,15.429,3.521zM12.045,4c-0.016,-0.009,-0.034,-0.023,-0.045,-0.035V1.507L14.493,4H12.045z" fill="#6D6E71"/>
    <path d="M5.514,16c-3.033,0,-5.5,-2.467,-5.5,-5.5s2.467,-5.5,5.5,-5.5s5.5,2.467,5.5,5.5S8.546,16,5.514,16zM5.214,14.714c0.107,0.008,0.205,0.012,0.3,0.012c0.066,0,0.135,-0.002,0.213,-0.006c0.096,-0.278,0.385,-1.155,0.596,-2.186H4.62C4.83,13.559,5.119,14.436,5.214,14.714zM7.365,12.533c-0.168,0.834,-0.392,1.574,-0.523,1.977c1.007,-0.335,1.859,-1.043,2.373,-1.977H7.365zM1.812,12.533c0.509,0.923,1.349,1.628,2.343,1.967c-0.147,-0.438,-0.365,-1.153,-0.534,-1.967H1.812zM9.601,11.567c0.092,-0.349,0.138,-0.708,0.138,-1.067c0,-0.356,-0.045,-0.711,-0.135,-1.057H7.53c0.043,0.373,0.065,0.726,0.065,1.052c0,0.328,-0.024,0.689,-0.072,1.073H9.601zM6.484,11.567c0.051,-0.4,0.077,-0.773,0.077,-1.109c0,-0.314,-0.021,-0.655,-0.063,-1.015H4.444c-0.042,0.36,-0.063,0.701,-0.063,1.015c0,0.337,0.026,0.71,0.077,1.109H6.484zM3.458,11.567c-0.049,-0.384,-0.074,-0.745,-0.074,-1.073c0,-0.326,0.023,-0.679,0.067,-1.052H1.424c-0.09,0.346,-0.135,0.702,-0.135,1.057c0,0.359,0.046,0.718,0.138,1.067H3.458zM9.221,8.477c-0.511,-0.932,-1.357,-1.642,-2.36,-1.98c0.144,0.44,0.357,1.159,0.517,1.98H9.221zM6.345,8.477c-0.201,-1.015,-0.487,-1.874,-0.6,-2.195c-0.085,-0.005,-0.16,-0.007,-0.231,-0.007c-0.102,0,-0.206,0.004,-0.318,0.013c-0.112,0.319,-0.398,1.178,-0.598,2.189H6.345zM3.607,8.477c0.164,-0.816,0.381,-1.531,0.528,-1.97c-0.989,0.343,-1.824,1.049,-2.329,1.97H3.607z" fill="#3E79B4"/>
  </g>
</svg>
