<svg version="1.1" id="Layer_1" xmlns="http://www.w3.org/2000/svg" xmlns:xlink="http://www.w3.org/1999/xlink" x="0px" y="0px" width="16px" height="16px" viewBox="0 0 16 16" enable-background="new 0 0 16 16" xml:space="preserve">
  <g id="icon">
    <path d="M15.075,3.875c-0.317,-0.317,-2.842,-2.842,-3.034,-3.034S11.583,0.5,11.117,0.5S3.1,0.5,3.1,0.5c-0.331,0,-0.6,0.269,-0.6,0.6v3.925C2.662,5,2.808,5,2.902,5h5.32c1.942,0,2.652,1.932,2.736,2.449c0.091,0.568,-0.214,1.116,-0.741,1.335c-0.144,0.06,-0.299,0.09,-0.462,0.09h-0.712c0.191,0.575,0.497,1.302,0.811,1.918c0.089,0.175,0.18,0.348,0.27,0.517c0.467,0.884,0.87,1.648,0.875,2.396c0,0.75,-0.168,1.337,-0.423,1.794H14.9c0.331,0,0.6,-0.269,0.6,-0.6c0,0,0,-9.517,0,-9.983S15.392,4.192,15.075,3.875z" fill-rule="evenodd" fill="#FFFFFF"/>
    <path d="M15.429,3.521L12.395,0.488C12.067,0.16,11.649,0,11.117,0H3.1c-0.607,0,-1.1,0.493,-1.1,1.1v4.095c0.325,-0.194,0.715,-0.195,0.902,-0.195H3V1.1c0,-0.055,0.045,-0.1,0.1,-0.1h7.9v3c0,0.473,0.399,0.867,0.798,0.972c0.051,0.018,0.106,0.027,0.164,0.027H15v9.9c0,0.055,-0.045,0.1,-0.1,0.1h-4.101c-0.14,0.407,-0.343,0.736,-0.575,1H14.9c0.607,0,1.1,-0.493,1.1,-1.1V4.917C16,4.324,15.84,3.933,15.429,3.521zM12.045,4c-0.016,-0.009,-0.034,-0.023,-0.045,-0.035V1.507L14.493,4H12.045z" fill="#6D6E71"/>
    <path d="M2.374,13.732c0,0.043,-0.197,1.018,-1.074,1.654c-0.101,0.102,-0.146,0.096,-0.271,0.021c-0.832,-0.544,-1.011,-1.572,-1.024,-1.63c-0.022,-0.104,0.029,-0.215,0.138,-0.261c0.026,-0.011,0.055,-0.015,0.084,-0.015h1.922C2.398,13.5,2.374,13.546,2.374,13.732zM2.743,6.374c0.655,0.586,0.911,1.309,0.913,1.32c0.021,0.105,0.109,0.181,0.211,0.181h5.888c0.027,0,0.053,-0.003,0.078,-0.014c0.102,-0.043,0.154,-0.149,0.137,-0.252C9.958,7.527,9.565,6,8.223,6h-5.32C2.384,6,2.406,6.073,2.743,6.374zM10,13.713C10,15.776,8.337,16,8.265,16c-0.031,0,-4.307,0,-5.698,0c-0.195,0,-0.749,-0.028,-0.856,-0.137c-0.04,-0.041,0.117,-0.147,0.278,-0.289c0,0,0.001,0,0.001,-0.001c0.176,-0.158,0.813,-0.791,0.982,-1.811c0.09,-0.79,-0.644,-1.893,-1.267,-2.96C1.1,9.765,0.527,8.785,0.527,7.977c0,-1.234,0.629,-1.594,1.005,-1.74c0.071,-0.028,0.153,-0.02,0.213,0.027c0.823,0.639,1.143,1.113,1.412,1.879C3.207,8.282,3.32,8.5,3.465,8.5h4.256c0.105,0,0.196,0.083,0.223,0.186c0.183,0.717,0.608,1.755,1.02,2.561C9.447,12.196,9.996,13.092,10,13.713zM4.1,12h2.8c0.276,0,0.5,-0.224,0.5,-0.5s-0.224,-0.5,-0.5,-0.5H4.1c-0.276,0,-0.5,0.224,-0.5,0.5S3.824,12,4.1,12zM8.4,13.5c0,-0.276,-0.224,-0.5,-0.5,-0.5H5.1c-0.276,0,-0.5,0.224,-0.5,0.5s0.224,0.5,0.5,0.5h2.8C8.176,14,8.4,13.776,8.4,13.5z" fill="#EAB765"/>
    <path d="M6.9,12H4.1c-0.276,0,-0.5,-0.224,-0.5,-0.5v0c0,-0.276,0.224,-0.5,0.5,-0.5h2.8c0.276,0,0.5,0.224,0.5,0.5v0C7.4,11.776,7.176,12,6.9,12zM8.4,13.5L8.4,13.5c0,-0.276,-0.224,-0.5,-0.5,-0.5H5.1c-0.276,0,-0.5,0.224,-0.5,0.5l0,0c0,0.276,0.224,0.5,0.5,0.5h2.8C8.176,14,8.4,13.776,8.4,13.5z" fill-rule="evenodd" fill="#FFFFFF"/>
  </g>
</svg>
