<svg version="1.1" id="Layer_1" xmlns="http://www.w3.org/2000/svg" xmlns:xlink="http://www.w3.org/1999/xlink" x="0px" y="0px" width="16px" height="16px" viewBox="0 0 16 16" enable-background="new 0 0 16 16" xml:space="preserve">
  <g id="icon">
    <path d="M15.075,3.875c-0.317,-0.317,-2.842,-2.842,-3.034,-3.034S11.583,0.5,11.117,0.5S3.1,0.5,3.1,0.5c-0.331,0,-0.6,0.269,-0.6,0.6v3.408L4.761,3.17c0.187,-0.111,0.401,-0.17,0.619,-0.17c0.199,0,0.398,0.05,0.574,0.144l2.795,1.497c0.214,0.114,0.384,0.287,0.497,0.492c0.107,0.024,0.211,0.063,0.308,0.115l2.795,1.497c0.401,0.215,0.65,0.633,0.65,1.091v2.434c0,0.413,-0.2,0.793,-0.538,1.023l-3.644,2.595L8.8,13.901c-0.125,0.081,-0.262,0.137,-0.405,0.168c-0.085,0.129,-0.194,0.242,-0.324,0.332L6.576,15.5H14.9c0.331,0,0.6,-0.269,0.6,-0.6c0,0,0,-9.517,0,-9.983S15.392,4.192,15.075,3.875z" fill-rule="evenodd" fill="#FFFFFF"/>
    <path d="M15.429,3.521L12.395,0.488C12.067,0.16,11.649,0,11.117,0H3.1c-0.607,0,-1.1,0.493,-1.1,1.1v3.703l1,-0.592V1.1c0,-0.055,0.045,-0.1,0.1,-0.1h7.9v3c0,0.473,0.399,0.867,0.798,0.972c0.051,0.018,0.106,0.027,0.164,0.027H15v9.9c0,0.055,-0.045,0.1,-0.1,0.1H7.256l-1.36,1H14.9c0.607,0,1.1,-0.493,1.1,-1.1V4.917C16,4.324,15.84,3.933,15.429,3.521zM12.045,4c-0.016,-0.009,-0.034,-0.023,-0.045,-0.035V1.507L14.493,4H12.045z" fill="#6D6E71"/>
    <path d="M4.314,8.786c0.081,-0.048,0.173,-0.073,0.267,-0.073c0.085,0,0.171,0.022,0.247,0.062l0.052,0.028v-0.211c0,-0.204,0.104,-0.394,0.272,-0.496L8.399,6.04v-0.307c0,-0.089,-0.047,-0.17,-0.122,-0.21L5.482,4.026c-0.067,-0.036,-0.146,-0.034,-0.211,0.005L0.113,7.082c-0.071,0.042,-0.114,0.12,-0.114,0.205v2.528c0,0.082,0.041,0.158,0.107,0.201l1.125,0.721L4.31,8.789L4.314,8.786zM0.898,7.39L5.38,4.642l2.134,1.196L2.995,8.738L0.898,7.39z" fill="#3E79B4"/>
    <path d="M11.877,7.627L9.082,6.13c-0.067,-0.036,-0.146,-0.034,-0.211,0.005L5.313,8.386c-0.071,0.042,-0.114,0.12,-0.114,0.205v0.383l2.423,1.34c0.183,0.098,0.297,0.294,0.297,0.51v2.172l0.103,0.066c0.072,0.046,0.162,0.046,0.234,-0.001l3.637,-2.59c0.066,-0.043,0.107,-0.119,0.107,-0.201V7.837C12,7.748,11.952,7.667,11.877,7.627zM8.187,9.877L6.101,8.675l2.884,-1.927l2.133,1.195L8.187,9.877z" fill="#8C53A1"/>
    <path d="M7.477,10.614L4.682,9.075c-0.067,-0.036,-0.146,-0.034,-0.211,0.005l-3.157,2.042c-0.071,0.042,-0.114,0.12,-0.114,0.205v2.696c0,0.082,0.041,0.158,0.107,0.201l2.716,1.741c0.072,0.046,0.162,0.046,0.234,-0.001l3.237,-2.38c0.066,-0.043,0.107,-0.119,0.107,-0.201v-2.56C7.599,10.736,7.552,10.654,7.477,10.614zM4.188,12.772l-2.107,-1.354l2.504,-1.722l2.151,1.24L4.188,12.772z" fill="#EAB765"/>
    <path d="M2.081,11.418l2.504,-1.722l2.151,1.24l-2.549,1.836L2.081,11.418zM6.101,8.675l2.884,-1.927l2.133,1.195L8.187,9.877L6.101,8.675zM0.898,7.39L5.38,4.642l2.134,1.196L2.995,8.738L0.898,7.39z" fill="#FFFFFF"/>
  </g>
</svg>
