<svg version="1.1" id="Layer_1" xmlns="http://www.w3.org/2000/svg" xmlns:xlink="http://www.w3.org/1999/xlink" x="0px" y="0px" width="16px" height="16px" viewBox="0 0 16 16" enable-background="new 0 0 16 16" xml:space="preserve">
  <g id="icon">
    <path d="M15.075,3.875c-0.317,-0.317,-2.842,-2.842,-3.034,-3.034S11.583,0.5,11.117,0.5S3.1,0.5,3.1,0.5c-0.331,0,-0.6,0.269,-0.6,0.6v3.637C3.398,4.267,4.418,4,5.5,4c3.584,0,6.5,2.916,6.5,6.5c0,2.008,-0.916,3.807,-2.352,5H14.9c0.331,0,0.6,-0.269,0.6,-0.6c0,0,0,-9.517,0,-9.983S15.392,4.192,15.075,3.875z" fill-rule="evenodd" fill="#FFFFFF"/>
    <path d="M15.429,3.521L12.395,0.488C12.067,0.16,11.649,0,11.117,0H3.1c-0.607,0,-1.1,0.493,-1.1,1.1v3.927c0.316,-0.203,0.65,-0.38,1,-0.526V1.1c0,-0.055,0.045,-0.1,0.1,-0.1h7.9v3c0,0.473,0.399,0.867,0.798,0.972c0.051,0.018,0.106,0.027,0.164,0.027H15v9.9c0,0.055,-0.045,0.1,-0.1,0.1h-4.716c-0.366,0.381,-0.777,0.717,-1.226,1H14.9c0.607,0,1.1,-0.493,1.1,-1.1V4.917C16,4.324,15.84,3.933,15.429,3.521zM12.045,4c-0.016,-0.009,-0.034,-0.023,-0.045,-0.035V1.507L14.493,4H12.045z" fill="#6D6E71"/>
    <path d="M5.5,5C2.462,5,0,7.462,0,10.5c0,3.038,2.462,5.5,5.5,5.5s5.5,-2.462,5.5,-5.5C11,7.462,8.538,5,5.5,5zM6.188,13.696c0,0.133,-0.107,0.242,-0.239,0.242h-0.897c-0.132,0,-0.239,-0.108,-0.239,-0.242v-0.629c0,-0.133,0.107,-0.229,0.239,-0.229h0.897c0.132,0,0.239,0.096,0.239,0.229V13.696zM6.641,10.702l-0.029,0.022c-0.307,0.317,-0.424,0.55,-0.493,0.827v0.037c0,0.162,-0.095,0.287,-0.27,0.287h-0.734c-0.163,0,-0.302,-0.112,-0.302,-0.287v-0.104c0,-0.624,0.423,-1.029,0.78,-1.386c0.038,-0.038,0.061,-0.076,0.098,-0.114l0.005,-0.005c0.31,-0.318,0.578,-0.592,0.578,-0.951c0,-0.464,-0.341,-0.775,-0.848,-0.775c-0.289,0,-0.585,0.096,-0.932,0.301l-0.366,0.245c-0.053,0.035,-0.115,0.054,-0.179,0.054c-0.109,0,-0.211,-0.055,-0.271,-0.147l-0.296,-0.462c-0.072,-0.111,-0.086,-0.34,0.045,-0.43c0.012,-0.009,0.044,-0.03,0.179,-0.119c0.04,-0.026,0.073,-0.048,0.079,-0.052c0.577,-0.395,1.216,-0.604,1.848,-0.604c1.169,0,2.014,0.801,2.014,1.905C7.547,9.772,7.064,10.266,6.641,10.702z" fill-rule="evenodd" fill="#3E79B4"/>
    <path d="M6.188,13.696c0,0.133,-0.107,0.242,-0.239,0.242h-0.897c-0.132,0,-0.239,-0.108,-0.239,-0.242v-0.629c0,-0.133,0.107,-0.229,0.239,-0.229h0.897c0.132,0,0.239,0.096,0.239,0.229V13.696zM5.533,7.039c-0.632,0,-1.271,0.209,-1.848,0.604c-0.006,0.004,-0.039,0.026,-0.079,0.052c-0.135,0.089,-0.167,0.11,-0.179,0.119c-0.131,0.091,-0.118,0.32,-0.045,0.43l0.296,0.462c0.06,0.092,0.161,0.147,0.271,0.147c0.064,0,0.125,-0.019,0.179,-0.054l0.366,-0.245c0.347,-0.205,0.643,-0.301,0.932,-0.301c0.507,0,0.848,0.312,0.848,0.775c0,0.358,-0.268,0.633,-0.578,0.951l-0.005,0.005c-0.037,0.037,-0.06,0.075,-0.098,0.114c-0.356,0.357,-0.78,0.762,-0.78,1.386v0.104c0,0.175,0.139,0.287,0.302,0.287h0.734c0.175,0,0.27,-0.125,0.27,-0.287v-0.037c0.069,-0.278,0.186,-0.511,0.493,-0.827l0.029,-0.022c0.423,-0.436,0.906,-0.93,0.906,-1.757C7.547,7.84,6.702,7.039,5.533,7.039z" fill="#FFFFFF"/>
  </g>
</svg>