<svg version="1.1" id="Layer_1" xmlns="http://www.w3.org/2000/svg" xmlns:xlink="http://www.w3.org/1999/xlink" x="0px" y="0px" width="16px" height="16px" viewBox="0 0 16 16" enable-background="new 0 0 16 16" xml:space="preserve">
  <g id="icon">
    <path d="M3.385,8h9.231c0.674,0,1.313,0.157,1.885,0.438c0,-1.81,0,-3.341,0,-3.521c0,-0.467,-0.108,-0.725,-0.425,-1.042c-0.317,-0.317,-2.842,-2.842,-3.034,-3.034S10.583,0.5,10.117,0.5S2.1,0.5,2.1,0.5c-0.331,0,-0.6,0.269,-0.6,0.6v7.338C2.071,8.157,2.71,8,3.385,8z" fill-rule="evenodd" fill="#FFFFFF"/>
    <path d="M2,8.231V1.1c0,-0.055,0.045,-0.1,0.1,-0.1h7.9v3c0,0.473,0.399,0.867,0.798,0.972c0.051,0.018,0.106,0.027,0.164,0.027H14v3.231c0.356,0.122,0.691,0.289,1,0.495v-3.81c0,-0.593,-0.16,-0.984,-0.571,-1.395L11.395,0.488C11.067,0.16,10.649,0,10.117,0H2.1c-0.607,0,-1.1,0.493,-1.1,1.1v7.627C1.309,8.52,1.644,8.353,2,8.231zM11,1.507L13.493,4h-2.448c-0.016,-0.009,-0.034,-0.023,-0.045,-0.035V1.507z" fill="#6D6E71"/>
    <path d="M3.5,3.5h5M4.5,5.5h4M4.5,7.5h7" fill="none" stroke="#B4B4B5" stroke-width="1" stroke-linecap="round" stroke-miterlimit="10" stroke-linejoin="round" opacity="0.6"/>
    <g>
      <path d="M4.236,11.173c-0.14,-0.113,-0.381,-0.173,-0.696,-0.173H3v1.3h0.54c0.145,0,0.276,-0.02,0.389,-0.059c0.108,-0.037,0.2,-0.087,0.272,-0.148c0.066,-0.055,0.115,-0.119,0.15,-0.194c0.034,-0.073,0.051,-0.155,0.051,-0.248C4.402,11.343,4.307,11.231,4.236,11.173z" fill="#8C53A1"/>
      <path d="M13.236,11.173c-0.14,-0.113,-0.381,-0.173,-0.696,-0.173H12v1.3h0.54c0.145,0,0.276,-0.02,0.389,-0.059c0.108,-0.037,0.2,-0.087,0.272,-0.148c0.066,-0.055,0.115,-0.119,0.15,-0.194c0.034,-0.073,0.051,-0.155,0.051,-0.248C13.402,11.343,13.307,11.231,13.236,11.173z" fill="#8C53A1"/>
      <path d="M13.242,9H2.758C1.235,9,0,10.235,0,11.758v1.483C0,14.765,1.235,16,2.758,16h10.483c1.523,0,2.758,-1.235,2.758,-2.758v-1.483C16,10.235,14.765,9,13.242,9zM5.256,12.323c-0.098,0.208,-0.236,0.387,-0.412,0.534c-0.166,0.14,-0.365,0.251,-0.59,0.328c-0.219,0.075,-0.459,0.114,-0.715,0.114H3v1.2c0,0.276,-0.224,0.5,-0.5,0.5s-0.5,-0.224,-0.5,-0.5v-4c0,-0.276,0.224,-0.5,0.5,-0.5h1.04c0.554,0,1,0.133,1.325,0.396c0.246,0.199,0.538,0.577,0.538,1.254C5.402,11.89,5.353,12.116,5.256,12.323zM10,14.5c0,0.276,-0.224,0.5,-0.5,0.5s-0.5,-0.224,-0.5,-0.5v-1.5H7v1.5c0,0.276,-0.224,0.5,-0.5,0.5s-0.5,-0.224,-0.5,-0.5v-4c0,-0.276,0.224,-0.5,0.5,-0.5s0.5,0.224,0.5,0.5v1.5h2v-1.5c0,-0.276,0.224,-0.5,0.5,-0.5s0.5,0.224,0.5,0.5V14.5zM14.256,12.323c-0.098,0.208,-0.236,0.387,-0.412,0.534c-0.166,0.14,-0.365,0.251,-0.59,0.328c-0.219,0.075,-0.459,0.114,-0.715,0.114H12v1.2c0,0.276,-0.224,0.5,-0.5,0.5s-0.5,-0.224,-0.5,-0.5v-4c0,-0.276,0.224,-0.5,0.5,-0.5h1.04c0.554,0,1,0.133,1.325,0.396c0.246,0.199,0.538,0.577,0.538,1.254C14.402,11.89,14.353,12.116,14.256,12.323z" fill="#8C53A1"/>
    </g>
    <path d="M2.5,14.5v-4h1.04c0.439,0,0.776,0.095,1.011,0.285c0.235,0.19,0.352,0.478,0.352,0.865c0,0.167,-0.033,0.32,-0.099,0.461c-0.066,0.141,-0.16,0.262,-0.28,0.364c-0.121,0.102,-0.265,0.181,-0.431,0.239c-0.167,0.058,-0.351,0.086,-0.552,0.086H2.6M11.5,14.5v-4h1.04c0.439,0,0.776,0.095,1.011,0.285c0.235,0.19,0.352,0.478,0.352,0.865c0,0.167,-0.033,0.32,-0.099,0.461c-0.066,0.141,-0.16,0.262,-0.28,0.364c-0.121,0.102,-0.265,0.181,-0.431,0.239c-0.167,0.058,-0.351,0.086,-0.552,0.086H11.6M9.5,10.5v4M6.5,10.5v4M6.5,12.5h3" fill="none" stroke="#FFFFFF" stroke-width="1" stroke-linecap="round" stroke-miterlimit="10" stroke-linejoin="round"/>
  </g>
</svg>
