<svg version="1.1" id="Layer_1" xmlns="http://www.w3.org/2000/svg" xmlns:xlink="http://www.w3.org/1999/xlink" x="0px" y="0px" width="16px" height="16px" viewBox="0 0 16 16" enable-background="new 0 0 16 16" xml:space="preserve">
  <g id="icon">
    <path d="M15.075,3.875c-0.317,-0.317,-2.842,-2.842,-3.034,-3.034S11.583,0.5,11.117,0.5S3.1,0.5,3.1,0.5c-0.331,0,-0.6,0.269,-0.6,0.6v4.9h0.9c0.212,0,0.415,0.041,0.6,0.117V5.6c0,-0.882,0.718,-1.6,1.6,-1.6h2.8c0.882,0,1.6,0.718,1.6,1.6v9.8c0,0.034,-0.003,0.067,-0.005,0.1H14.9c0.331,0,0.6,-0.269,0.6,-0.6c0,0,0,-9.517,0,-9.983S15.392,4.192,15.075,3.875z" fill-rule="evenodd" fill="#FFFFFF"/>
    <path d="M15.429,3.521L12.395,0.488C12.067,0.16,11.649,0,11.117,0H3.1c-0.607,0,-1.1,0.493,-1.1,1.1v4.9h1V1.1c0,-0.055,0.045,-0.1,0.1,-0.1h7.9v3c0,0.473,0.399,0.867,0.798,0.972c0.051,0.018,0.106,0.027,0.164,0.027H15v9.9c0,0.055,-0.045,0.1,-0.1,0.1h-4.9v0.4c0,0.212,-0.042,0.415,-0.118,0.6H14.9c0.607,0,1.1,-0.493,1.1,-1.1V4.917C16,4.324,15.84,3.933,15.429,3.521zM12.045,4c-0.016,-0.009,-0.034,-0.023,-0.045,-0.035V1.507L14.493,4H12.045z" fill="#6D6E71"/>
    <path d="M3.4,7H0.6c-0.331,0,-0.6,0.269,-0.6,0.6v7.8c0,0.331,0.269,0.6,0.6,0.6h2.8c0.331,0,0.6,-0.269,0.6,-0.6V7.6C4,7.269,3.731,7,3.4,7zM3,14H1v-1h2V14zM3,10H1V9h2V10zM8.4,5H5.6c-0.331,0,-0.6,0.269,-0.6,0.6v9.8c0,0.331,0.269,0.6,0.6,0.6h2.8c0.331,0,0.6,-0.269,0.6,-0.6V5.6C9,5.269,8.731,5,8.4,5zM8,14H6v-1h2V14zM8,8H6V7h2V8z" fill="#3E79B4"/>
    <path d="M3,10H1V9h2V10zM3,13H1v1h2V13zM8,8H6V7h2V8zM8,13H6v1h2V13z" fill="#FFFFFF"/>
  </g>
</svg>